<svg width="12" height="16" viewBox="0 0 12 16" fill="none" xmlns="http://www.w3.org/2000/svg">
<path d="M10.6668 3.99967V13.333C10.6668 13.6866 10.5264 14.0258 10.2763 14.2758C10.0263 14.5259 9.68712 14.6663 9.3335 14.6663H2.66683C2.31321 14.6663 1.97407 14.5259 1.72402 14.2758C1.47397 14.0258 1.3335 13.6866 1.3335 13.333V3.99967M3.3335 3.99967V2.66634C3.3335 2.31272 3.47397 1.97358 3.72402 1.72353C3.97407 1.47348 4.31321 1.33301 4.66683 1.33301H7.3335C7.68712 1.33301 8.02626 1.47348 8.2763 1.72353C8.52635 1.97358 8.66683 2.31272 8.66683 2.66634V3.99967" stroke="#FF0000" stroke-linecap="round" stroke-linejoin="round"/>
</svg>
