<svg width="16" height="16" viewBox="0 0 16 16" fill="none" xmlns="http://www.w3.org/2000/svg">
<path d="M5.6002 5.99961C5.6002 5.89352 5.64234 5.79178 5.71735 5.71677C5.79237 5.64175 5.89411 5.59961 6.0002 5.59961H10.0002C10.1063 5.59961 10.208 5.64175 10.283 5.71677C10.3581 5.79178 10.4002 5.89352 10.4002 5.99961C10.4002 6.1057 10.3581 6.20744 10.283 6.28245C10.208 6.35747 10.1063 6.39961 10.0002 6.39961H6.0002C5.89411 6.39961 5.79237 6.35747 5.71735 6.28245C5.64234 6.20744 5.6002 6.1057 5.6002 5.99961ZM6.0002 7.99961C5.89411 7.99961 5.79237 8.04175 5.71735 8.11677C5.64234 8.19178 5.6002 8.29352 5.6002 8.39961C5.6002 8.5057 5.64234 8.60744 5.71735 8.68245C5.79237 8.75747 5.89411 8.79961 6.0002 8.79961H10.0002C10.1063 8.79961 10.208 8.75747 10.283 8.68245C10.3581 8.60744 10.4002 8.5057 10.4002 8.39961C10.4002 8.29352 10.3581 8.19178 10.283 8.11677C10.208 8.04175 10.1063 7.99961 10.0002 7.99961H6.0002ZM5.6002 10.7996C5.6002 10.6935 5.64234 10.5918 5.71735 10.5168C5.79237 10.4418 5.89411 10.3996 6.0002 10.3996H7.6002C7.70628 10.3996 7.80802 10.4418 7.88304 10.5168C7.95805 10.5918 8.0002 10.6935 8.0002 10.7996C8.0002 10.9057 7.95805 11.0074 7.88304 11.0825C7.80802 11.1575 7.70628 11.1996 7.6002 11.1996H6.0002C5.89411 11.1996 5.79237 11.1575 5.71735 11.0825C5.64234 11.0074 5.6002 10.9057 5.6002 10.7996ZM4.8002 1.99961C4.8002 1.89352 4.84234 1.79178 4.91735 1.71677C4.99237 1.64175 5.09411 1.59961 5.2002 1.59961C5.30628 1.59961 5.40802 1.64175 5.48304 1.71677C5.55805 1.79178 5.6002 1.89352 5.6002 1.99961V2.39961H7.6002V1.99961C7.6002 1.89352 7.64234 1.79178 7.71735 1.71677C7.79237 1.64175 7.89411 1.59961 8.0002 1.59961C8.10628 1.59961 8.20802 1.64175 8.28304 1.71677C8.35805 1.79178 8.4002 1.89352 8.4002 1.99961V2.39961H10.4002V1.99961C10.4002 1.89352 10.4423 1.79178 10.5174 1.71677C10.5924 1.64175 10.6941 1.59961 10.8002 1.59961C10.9063 1.59961 11.008 1.64175 11.083 1.71677C11.1581 1.79178 11.2002 1.89352 11.2002 1.99961V2.39961H11.6002C11.9185 2.39961 12.2237 2.52604 12.4487 2.75108C12.6738 2.97613 12.8002 3.28135 12.8002 3.59961V7.38521C12.5394 7.49721 12.2946 7.65881 12.0818 7.87241L12.0002 7.95401V3.59961C12.0002 3.49352 11.9581 3.39178 11.883 3.31677C11.808 3.24175 11.7063 3.19961 11.6002 3.19961H4.4002C4.29411 3.19961 4.19237 3.24175 4.11735 3.31677C4.04234 3.39178 4.0002 3.49352 4.0002 3.59961V13.1996C4.0002 13.3057 4.04234 13.4074 4.11735 13.4825C4.19237 13.5575 4.29411 13.5996 4.4002 13.5996H7.3762L7.2458 14.122C7.22302 14.213 7.20856 14.306 7.2026 14.3996H4.4002C4.08194 14.3996 3.77671 14.2732 3.55167 14.0481C3.32662 13.8231 3.2002 13.5179 3.2002 13.1996V3.59961C3.2002 3.28135 3.32662 2.97613 3.55167 2.75108C3.77671 2.52604 4.08194 2.39961 4.4002 2.39961H4.8002V1.99961ZM12.6482 8.43801L8.78419 12.302C8.55899 12.5271 8.39917 12.8091 8.3218 13.118L8.0218 14.3164C7.99221 14.4356 7.99396 14.5604 8.02686 14.6787C8.05977 14.797 8.12272 14.9048 8.2096 14.9916C8.29648 15.0784 8.40433 15.1413 8.52267 15.1741C8.64102 15.2069 8.76583 15.2085 8.885 15.1788L10.0834 14.8796C10.3923 14.8023 10.6744 14.6425 10.8994 14.4172L14.7634 10.5532C15.0403 10.2719 15.1948 9.89248 15.1932 9.49773C15.1916 9.10297 15.034 8.72485 14.7548 8.44577C14.4756 8.16669 14.0975 8.00927 13.7027 8.00781C13.308 8.00636 12.9286 8.16099 12.6474 8.43801H12.6482Z" fill="#1F2937"/>
</svg>
