<svg width="24" height="23" viewBox="0 0 24 23" fill="none" xmlns="http://www.w3.org/2000/svg">
<path d="M12.2589 18.5992L12.0006 18.443L11.7421 18.5987L6.20876 21.932L6.20786 21.9326C5.57491 22.3157 4.80015 21.7515 4.9671 21.0336L6.43371 14.7405L6.50219 14.4467L6.27419 14.2491L1.38086 10.0091L1.38068 10.009C0.820616 9.52414 1.12483 8.61003 1.85308 8.5521L1.85308 8.5521L1.85572 8.55188L8.29572 8.00521L8.59588 7.97973L8.71364 7.70247L11.2336 1.76913L11.2345 1.76719C11.5163 1.09583 12.4839 1.09583 12.7657 1.76719L12.7664 1.76876L15.2864 7.71543L15.404 7.99304L15.7045 8.01855L22.1445 8.56522L22.1471 8.56543C22.8754 8.62336 23.1796 9.53747 22.6195 10.0223L22.6193 10.0225L17.726 14.2625L17.498 14.46L17.5665 14.7538L19.0331 21.0469C19.0331 21.047 19.0331 21.0471 19.0331 21.0472C19.1999 21.765 18.4252 22.329 17.7923 21.9459L17.7922 21.9458L12.2589 18.5992Z" fill="#F3C11B" stroke="#F3C11B"/>
</svg>
