<svg width="109" height="116" viewBox="0 0 109 116" fill="none" xmlns="http://www.w3.org/2000/svg">
<path d="M106.799 112.201H87.9996V102.406L95.686 96.0455C96.2882 95.5466 96.3702 94.6575 95.874 94.0554C95.3737 93.4518 94.4846 93.3698 93.8839 93.8674L87.9996 98.7368V83.9322C87.9996 83.1505 87.3678 82.5187 86.5862 82.5187C85.8045 82.5187 85.1727 83.1505 85.1727 83.9322V89.1422L79.2461 83.2155C78.6934 82.6629 77.8001 82.6629 77.2474 83.2155C76.6948 83.7682 76.6948 84.6615 77.2474 85.2142L85.1727 93.1395V112.201H77.3506C76.863 106.341 72.0982 101.883 66.091 101.883C64.809 101.883 63.5114 102.153 62.2746 102.611V68.3841H90.6852C91.4669 68.3841 92.0987 67.7523 92.0987 66.9706V41.5283C92.0987 31.3966 83.8554 23.1533 73.7237 23.1533H66.3737V17.6889L80.8291 10.8633C81.3239 10.63 81.6391 10.1311 81.6391 9.5855C81.6391 9.0399 81.3224 8.54095 80.8291 8.30773L65.5638 1.09908C65.1242 0.892712 64.6125 0.923808 64.204 1.18388C63.7955 1.44113 63.5468 1.89062 63.5468 2.37543V3.64755V16.7927V23.1533H31.1785C21.0468 23.1533 12.8035 31.3966 12.8035 41.5283V66.3388L7.90302 70.7234C5.58353 72.8026 4.80188 76.0182 5.91145 78.9172C7.02808 81.836 9.66984 83.6495 12.8035 83.6495H18.5987C27.4045 83.6495 35.0217 80.5738 42.5908 73.9517L46.7266 70.1764V96.8512C44.7562 95.89 42.5993 95.3826 40.366 95.3826C32.3389 95.3826 25.8073 101.913 25.8073 109.941C25.8073 110.712 25.8992 111.468 26.0321 112.204H19.5881V98.9177C19.5881 98.136 18.9549 97.5042 18.1746 97.5042C17.3944 97.5042 16.7612 98.136 16.7612 98.9177V104.723L11.7137 100.645C11.1073 100.154 10.2154 100.251 9.72638 100.857C9.23591 101.463 9.33061 102.354 9.93699 102.844L16.7612 108.357V112.201H2.20252C1.42229 112.201 0.789062 112.833 0.789062 113.615C0.789062 114.396 1.42229 115.028 2.20252 115.028H48.14H60.8612H106.799C107.58 115.028 108.212 114.396 108.212 113.615C108.212 112.833 107.58 112.201 106.799 112.201ZM66.091 104.71C70.5109 104.71 74.036 107.93 74.5124 112.201H62.2746V105.688C63.4718 105.066 64.7963 104.71 66.091 104.71ZM63.5468 25.9802V32.9062C63.5468 33.6864 64.1786 34.3197 64.9602 34.3197C65.7419 34.3197 66.3737 33.6864 66.3737 32.9062V25.9802H73.7237C82.2963 25.9802 89.2718 32.9557 89.2718 41.5283V65.5572H60.8612H49.5535V41.5283C49.5535 34.9783 46.099 29.234 40.9271 25.9802H63.5468ZM40.7066 71.8428C33.7058 77.9688 26.6809 80.8225 18.5987 80.8225H12.8035C10.4911 80.8225 9.09032 79.3172 8.55179 77.908C8.00478 76.479 8.04295 74.3955 9.78857 72.8294L14.7569 68.3841H44.4961L40.7066 71.8428ZM28.6343 109.94C28.6343 103.472 33.8966 98.2081 40.366 98.2081C42.6501 98.2081 44.8255 98.888 46.7266 100.121V112.201H28.9127C28.753 111.447 28.6343 110.679 28.6343 109.94ZM49.5535 112.201V68.3841H59.4477V112.201H49.5535Z" fill="#2F327D"/>
</svg>
