<svg width="48" height="48" viewBox="0 0 48 48" fill="none" xmlns="http://www.w3.org/2000/svg">
<g clip-path="url(#clip0_141_57)">
<path d="M24 0C19.2533 0 14.6131 1.40758 10.6663 4.04473C6.71955 6.68188 3.6434 10.4302 1.8269 14.8156C0.0103987 19.201 -0.464881 24.0266 0.461164 28.6822C1.38721 33.3377 3.67299 37.6141 7.02945 40.9706C10.3859 44.327 14.6623 46.6128 19.3178 47.5388C23.9734 48.4649 28.799 47.9896 33.1844 46.1731C37.5698 44.3566 41.3181 41.2805 43.9553 37.3337C46.5924 33.3869 48 28.7468 48 24C47.9931 17.6369 45.4623 11.5365 40.9629 7.03711C36.4635 2.53774 30.3631 0.00694821 24 0V0ZM24 45.75C19.6983 45.75 15.4931 44.4744 11.9164 42.0845C8.33959 39.6945 5.55184 36.2977 3.90563 32.3234C2.25943 28.3491 1.8287 23.9759 2.66793 19.7568C3.50716 15.5377 5.57865 11.6622 8.62044 8.62043C11.6622 5.57864 15.5377 3.50715 19.7568 2.66792C23.9759 1.82869 28.3491 2.25941 32.3234 3.90562C36.2977 5.55183 39.6946 8.33958 42.0845 11.9163C44.4744 15.4931 45.75 19.6983 45.75 24C45.7431 29.7663 43.4493 35.2945 39.3719 39.3719C35.2945 43.4493 29.7663 45.7431 24 45.75Z" fill="white"/>
<path d="M32.9625 15.885L18.9074 29.7075L15.0637 25.6613C14.8564 25.4532 14.576 25.3344 14.2823 25.3303C13.9886 25.3262 13.705 25.4371 13.492 25.6393C13.279 25.8415 13.1535 26.119 13.1424 26.4125C13.1313 26.706 13.2354 26.9922 13.4324 27.21L18.0637 32.085C18.1665 32.1929 18.2897 32.2793 18.4262 32.3392C18.5627 32.399 18.7097 32.4312 18.8587 32.4338H18.8774C19.172 32.4335 19.4548 32.3177 19.6649 32.1113L34.5337 17.4863C34.6391 17.3826 34.723 17.2592 34.7807 17.1231C34.8384 16.987 34.8687 16.8409 34.87 16.6931C34.8712 16.5452 34.8433 16.3986 34.7878 16.2616C34.7324 16.1246 34.6505 15.9998 34.5468 15.8944C34.4432 15.789 34.3198 15.7051 34.1837 15.6474C34.0476 15.5897 33.9014 15.5594 33.7536 15.5581C33.6058 15.5569 33.4592 15.5848 33.3221 15.6403C33.1851 15.6957 33.0603 15.7776 32.955 15.8813L32.9625 15.885Z" fill="white"/>
</g>
<defs>
<clipPath id="clip0_141_57">
<rect width="48" height="48" fill="white"/>
</clipPath>
</defs>
</svg>
