<svg width="24" height="25" viewBox="0 0 24 25" fill="none" xmlns="http://www.w3.org/2000/svg">
<path d="M14.839 11.3991L20.499 7.60911C21.069 7.22911 21.219 6.44911 20.839 5.88911L19.019 3.17911C18.639 2.60911 17.859 2.45911 17.299 2.83911L11.639 6.62911L14.839 11.3991ZM14.52 10.9181L12.76 12.0981L10.09 13.8881L9.73999 14.1181L9.57999 13.8781L7.33999 10.5381L7.17999 10.2981L11.96 7.09811L14.52 10.9181Z" fill="white"/>
<path d="M5.64 16.5191L9.59 13.8791L7.35 10.5391L3.4 13.1791C3.29088 13.2525 3.19731 13.3467 3.12465 13.4564C3.052 13.566 3.0017 13.6889 2.97662 13.818C2.95153 13.9472 2.95217 14.08 2.97849 14.2088C3.00481 14.3377 3.0563 14.4601 3.13 14.5691L4.26 16.2491C4.56 16.7091 5.18 16.8291 5.64 16.5191Z" fill="white"/>
<path opacity="0.4" d="M16.56 22.3121C16.4618 22.3542 16.3568 22.3779 16.25 22.3821C15.96 22.3821 15.69 22.212 15.56 21.932L11.83 13.6921L8.05 21.942C7.98797 22.0728 7.89034 22.1835 7.76829 22.2613C7.64625 22.3391 7.50474 22.381 7.36 22.3821C7.25325 22.3779 7.14816 22.3542 7.05 22.3121C6.87051 22.2261 6.73151 22.0736 6.66245 21.887C6.59339 21.7003 6.59968 21.4941 6.68 21.3121L10.09 13.8921L12.76 12.1021L16.93 21.3221C17.1 21.6921 16.93 22.1421 16.56 22.3121Z" fill="white"/>
</svg>
