<svg width="24" height="24" viewBox="0 0 24 24" fill="none" xmlns="http://www.w3.org/2000/svg">
<path opacity="0.4" d="M17.53 7.77C17.4604 7.76 17.3896 7.76 17.32 7.77C16.5731 7.74556 15.8652 7.43119 15.3462 6.89355C14.8272 6.3559 14.538 5.63726 14.54 4.89C14.54 3.3 15.83 2 17.43 2C19.02 2 20.32 3.29 20.32 4.89C20.3179 5.63773 20.026 6.35553 19.5057 6.89258C18.9855 7.42963 18.2773 7.74413 17.53 7.77ZM20.792 14.7C19.672 15.45 18.102 15.73 16.652 15.54C17.032 14.72 17.232 13.81 17.242 12.85C17.242 11.85 17.022 10.9 16.602 10.07C18.082 9.87 19.652 10.15 20.782 10.9C22.362 11.94 22.362 13.65 20.792 14.7ZM6.438 7.77C6.508 7.76 6.578 7.76 6.648 7.77C7.39486 7.74556 8.10284 7.43119 8.62182 6.89355C9.1408 6.3559 9.42996 5.63726 9.428 4.89C9.428 3.3 8.138 2 6.538 2C4.948 2 3.648 3.29 3.648 4.89C3.65014 5.63773 3.94201 6.35553 4.46228 6.89258C4.98254 7.42963 5.69072 7.74413 6.438 7.77ZM6.551 12.85C6.551 13.82 6.761 14.74 7.141 15.57C5.731 15.72 4.261 15.42 3.181 14.71C1.601 13.66 1.601 11.95 3.181 10.9C4.251 10.18 5.761 9.89 7.181 10.05C6.771 10.89 6.551 11.84 6.551 12.85Z" fill="white"/>
<path d="M12.12 15.87C12.0336 15.86 11.9464 15.86 11.86 15.87C10.9709 15.8401 10.1282 15.4655 9.51043 14.8253C8.89264 14.1851 8.5482 13.3297 8.55 12.44C8.55 10.54 10.08 9 11.99 9C13.89 9 15.43 10.54 15.43 12.44C15.43 14.3 13.97 15.81 12.12 15.87ZM8.87 17.94C7.36 18.95 7.36 20.61 8.87 21.61C10.59 22.76 13.41 22.76 15.13 21.61C16.64 20.6 16.64 18.94 15.13 17.94C13.42 16.79 10.6 16.79 8.87 17.94Z" fill="white"/>
</svg>
