<svg width="24" height="25" viewBox="0 0 24 25" fill="none" xmlns="http://www.w3.org/2000/svg">
<path opacity="0.4" d="M2 13.3809V11.6209C2 10.5809 2.85 9.72091 3.9 9.72091C5.71 9.72091 6.45 8.44091 5.54 6.87091C5.02 5.97091 5.33 4.80091 6.24 4.28091L7.97 3.29091C8.76 2.82091 9.78 3.10091 10.25 3.89091L10.36 4.08091C11.26 5.65091 12.74 5.65091 13.65 4.08091L13.76 3.89091C14.23 3.10091 15.25 2.82091 16.04 3.29091L17.77 4.28091C18.68 4.80091 18.99 5.97091 18.47 6.87091C17.56 8.44091 18.3 9.72091 20.11 9.72091C21.15 9.72091 22.01 10.5709 22.01 11.6209V13.3809C22.01 14.4209 21.16 15.2809 20.11 15.2809C18.3 15.2809 17.56 16.5609 18.47 18.1309C18.99 19.0409 18.68 20.2009 17.77 20.7209L16.04 21.7109C15.25 22.1809 14.23 21.9009 13.76 21.1109L13.65 20.9209C12.75 19.3509 11.27 19.3509 10.36 20.9209L10.25 21.1109C9.78 21.9009 8.76 22.1809 7.97 21.7109L6.24 20.7209C5.8041 20.4699 5.48558 20.0563 5.35435 19.5707C5.22311 19.0851 5.28988 18.5673 5.54 18.1309C6.45 16.5609 5.71 15.2809 3.9 15.2809C2.85 15.2809 2 14.4209 2 13.3809Z" fill="white"/>
<path d="M12 15.75C12.862 15.75 13.6886 15.4076 14.2981 14.7981C14.9076 14.1886 15.25 13.362 15.25 12.5C15.25 11.638 14.9076 10.8114 14.2981 10.2019C13.6886 9.59241 12.862 9.25 12 9.25C11.138 9.25 10.3114 9.59241 9.7019 10.2019C9.09241 10.8114 8.75 11.638 8.75 12.5C8.75 13.362 9.09241 14.1886 9.7019 14.7981C10.3114 15.4076 11.138 15.75 12 15.75Z" fill="white"/>
</svg>
