<svg width="34" height="34" viewBox="0 0 34 34" fill="none" xmlns="http://www.w3.org/2000/svg">
<path d="M11.5384 16.9996C11.5384 13.9838 13.984 11.5383 17.0016 11.5383C20.0192 11.5383 22.4661 13.9838 22.4661 16.9996C22.4661 20.0154 20.0192 22.4608 17.0016 22.4608C13.984 22.4608 11.5384 20.0154 11.5384 16.9996ZM8.58438 16.9996C8.58438 21.6456 12.3527 25.4117 17.0016 25.4117C21.6504 25.4117 25.4188 21.6456 25.4188 16.9996C25.4188 12.3535 21.6504 8.58741 17.0016 8.58741C12.3527 8.58741 8.58438 12.3535 8.58438 16.9996ZM23.7849 8.25386C23.7848 8.64268 23.9 9.02281 24.116 9.34618C24.332 9.66956 24.6391 9.92165 24.9985 10.0706C25.3579 10.2195 25.7534 10.2586 26.135 10.1829C26.5166 10.1072 26.8672 9.92012 27.1424 9.6453C27.4176 9.37047 27.6051 9.02026 27.6811 8.63895C27.7572 8.25763 27.7184 7.86234 27.5696 7.50307C27.4209 7.14379 27.1689 6.83666 26.8455 6.62051C26.5221 6.40437 26.1418 6.28892 25.7528 6.28877H25.752C25.2305 6.28901 24.7304 6.4961 24.3616 6.86455C23.9928 7.233 23.7854 7.73269 23.7849 8.25386ZM10.3791 30.3344C8.78095 30.2617 7.9123 29.9956 7.33503 29.7709C6.56971 29.4731 6.02365 29.1185 5.44953 28.5455C4.87541 27.9725 4.52003 27.4273 4.2234 26.6624C3.99836 26.0858 3.73216 25.2174 3.65951 23.6201C3.58004 21.8933 3.56417 21.3746 3.56417 16.9997C3.56417 12.6248 3.58135 12.1075 3.65951 10.3792C3.73229 8.78203 4.00046 7.91534 4.2234 7.33698C4.52134 6.57212 4.8762 6.02639 5.44953 5.45261C6.02287 4.87883 6.5684 4.52366 7.33503 4.22721C7.91204 4.00231 8.78095 3.73626 10.3791 3.66365C12.107 3.58423 12.626 3.56837 17.0016 3.56837C21.3771 3.56837 21.8967 3.58554 23.626 3.66365C25.2242 3.73639 26.0914 4.00441 26.6701 4.22721C27.4354 4.52366 27.9815 4.87962 28.5556 5.45261C29.1297 6.0256 29.4838 6.57212 29.7817 7.33698C30.0068 7.91364 30.273 8.78203 30.3456 10.3792C30.4251 12.1075 30.441 12.6248 30.441 16.9997C30.441 21.3746 30.4251 21.8919 30.3456 23.6201C30.2728 25.2174 30.0053 26.0855 29.7817 26.6624C29.4838 27.4273 29.1289 27.973 28.5556 28.5455C27.9823 29.1179 27.4354 29.4731 26.6701 29.7709C26.0931 29.9958 25.2242 30.2618 23.626 30.3344C21.8981 30.4138 21.3791 30.4297 17.0016 30.4297C12.6241 30.4297 12.1065 30.4138 10.3791 30.3344ZM10.2434 0.716399C8.49835 0.795821 7.30592 1.07236 6.26455 1.47733C5.18608 1.89554 4.2731 2.4566 3.36077 3.36694C2.44845 4.27727 1.88849 5.19115 1.47003 6.26898C1.06482 7.31037 0.788116 8.50144 0.708646 10.2454C0.627865 11.9922 0.609375 12.5506 0.609375 16.9996C0.609375 21.4485 0.627865 22.0069 0.708646 23.7537C0.788116 25.4978 1.06482 26.6888 1.47003 27.7302C1.88849 28.8073 2.44858 29.7222 3.36077 30.6322C4.27297 31.5421 5.18608 32.1024 6.26455 32.5218C7.30789 32.9268 8.49835 33.2033 10.2434 33.2827C11.9921 33.3621 12.55 33.3819 17.0016 33.3819C21.4532 33.3819 22.012 33.3635 23.7598 33.2827C25.5049 33.2033 26.6966 32.9268 27.7386 32.5218C28.8164 32.1024 29.7301 31.5425 30.6424 30.6322C31.5547 29.7219 32.1135 28.8073 32.5331 27.7302C32.9383 26.6888 33.2164 25.4977 33.2945 23.7537C33.374 22.0056 33.3925 21.4485 33.3925 16.9996C33.3925 12.5506 33.374 11.9922 33.2945 10.2454C33.215 8.5013 32.9383 7.30972 32.5331 6.26898C32.1135 5.1918 31.5533 4.27871 30.6424 3.36694C29.7315 2.45516 28.8164 1.89554 27.7399 1.47733C26.6966 1.07236 25.5048 0.79451 23.7611 0.716399C22.0133 0.636977 21.4545 0.617188 17.0029 0.617188C12.5513 0.617188 11.9921 0.635667 10.2434 0.716399Z" fill="url(#paint0_radial_2443_387)"/>
<path d="M11.5384 16.9996C11.5384 13.9838 13.984 11.5383 17.0016 11.5383C20.0192 11.5383 22.4661 13.9838 22.4661 16.9996C22.4661 20.0154 20.0192 22.4608 17.0016 22.4608C13.984 22.4608 11.5384 20.0154 11.5384 16.9996ZM8.58438 16.9996C8.58438 21.6456 12.3527 25.4117 17.0016 25.4117C21.6504 25.4117 25.4188 21.6456 25.4188 16.9996C25.4188 12.3535 21.6504 8.58741 17.0016 8.58741C12.3527 8.58741 8.58438 12.3535 8.58438 16.9996ZM23.7849 8.25386C23.7848 8.64268 23.9 9.02281 24.116 9.34618C24.332 9.66956 24.6391 9.92165 24.9985 10.0706C25.3579 10.2195 25.7534 10.2586 26.135 10.1829C26.5166 10.1072 26.8672 9.92012 27.1424 9.6453C27.4176 9.37047 27.6051 9.02026 27.6811 8.63895C27.7572 8.25763 27.7184 7.86234 27.5696 7.50307C27.4209 7.14379 27.1689 6.83666 26.8455 6.62051C26.5221 6.40437 26.1418 6.28892 25.7528 6.28877H25.752C25.2305 6.28901 24.7304 6.4961 24.3616 6.86455C23.9928 7.233 23.7854 7.73269 23.7849 8.25386ZM10.3791 30.3344C8.78095 30.2617 7.9123 29.9956 7.33503 29.7709C6.56971 29.4731 6.02365 29.1185 5.44953 28.5455C4.87541 27.9725 4.52003 27.4273 4.2234 26.6624C3.99836 26.0858 3.73216 25.2174 3.65951 23.6201C3.58004 21.8933 3.56417 21.3746 3.56417 16.9997C3.56417 12.6248 3.58135 12.1075 3.65951 10.3792C3.73229 8.78203 4.00046 7.91534 4.2234 7.33698C4.52134 6.57212 4.8762 6.02639 5.44953 5.45261C6.02287 4.87883 6.5684 4.52366 7.33503 4.22721C7.91204 4.00231 8.78095 3.73626 10.3791 3.66365C12.107 3.58423 12.626 3.56837 17.0016 3.56837C21.3771 3.56837 21.8967 3.58554 23.626 3.66365C25.2242 3.73639 26.0914 4.00441 26.6701 4.22721C27.4354 4.52366 27.9815 4.87962 28.5556 5.45261C29.1297 6.0256 29.4838 6.57212 29.7817 7.33698C30.0068 7.91364 30.273 8.78203 30.3456 10.3792C30.4251 12.1075 30.441 12.6248 30.441 16.9997C30.441 21.3746 30.4251 21.8919 30.3456 23.6201C30.2728 25.2174 30.0053 26.0855 29.7817 26.6624C29.4838 27.4273 29.1289 27.973 28.5556 28.5455C27.9823 29.1179 27.4354 29.4731 26.6701 29.7709C26.0931 29.9958 25.2242 30.2618 23.626 30.3344C21.8981 30.4138 21.3791 30.4297 17.0016 30.4297C12.6241 30.4297 12.1065 30.4138 10.3791 30.3344ZM10.2434 0.716399C8.49835 0.795821 7.30592 1.07236 6.26455 1.47733C5.18608 1.89554 4.2731 2.4566 3.36077 3.36694C2.44845 4.27727 1.88849 5.19115 1.47003 6.26898C1.06482 7.31037 0.788116 8.50144 0.708646 10.2454C0.627865 11.9922 0.609375 12.5506 0.609375 16.9996C0.609375 21.4485 0.627865 22.0069 0.708646 23.7537C0.788116 25.4978 1.06482 26.6888 1.47003 27.7302C1.88849 28.8073 2.44858 29.7222 3.36077 30.6322C4.27297 31.5421 5.18608 32.1024 6.26455 32.5218C7.30789 32.9268 8.49835 33.2033 10.2434 33.2827C11.9921 33.3621 12.55 33.3819 17.0016 33.3819C21.4532 33.3819 22.012 33.3635 23.7598 33.2827C25.5049 33.2033 26.6966 32.9268 27.7386 32.5218C28.8164 32.1024 29.7301 31.5425 30.6424 30.6322C31.5547 29.7219 32.1135 28.8073 32.5331 27.7302C32.9383 26.6888 33.2164 25.4977 33.2945 23.7537C33.374 22.0056 33.3925 21.4485 33.3925 16.9996C33.3925 12.5506 33.374 11.9922 33.2945 10.2454C33.215 8.5013 32.9383 7.30972 32.5331 6.26898C32.1135 5.1918 31.5533 4.27871 30.6424 3.36694C29.7315 2.45516 28.8164 1.89554 27.7399 1.47733C26.6966 1.07236 25.5048 0.79451 23.7611 0.716399C22.0133 0.636977 21.4545 0.617188 17.0029 0.617188C12.5513 0.617188 11.9921 0.635667 10.2434 0.716399Z" fill="url(#paint1_radial_2443_387)"/>
<defs>
<radialGradient id="paint0_radial_2443_387" cx="0" cy="0" r="1" gradientUnits="userSpaceOnUse" gradientTransform="translate(4.96498 33.5367) scale(42.7973 42.7716)">
<stop offset="0.09" stop-color="#FA8F21"/>
<stop offset="0.78" stop-color="#D82D7E"/>
</radialGradient>
<radialGradient id="paint1_radial_2443_387" cx="0" cy="0" r="1" gradientUnits="userSpaceOnUse" gradientTransform="translate(20.4917 35.0046) scale(33.7302 33.7099)">
<stop offset="0.64" stop-color="#8C3AAA" stop-opacity="0"/>
<stop offset="1" stop-color="#8C3AAA"/>
</radialGradient>
</defs>
</svg>
