<svg width="30" height="30" viewBox="0 0 30 30" fill="none" xmlns="http://www.w3.org/2000/svg">
<g clip-path="url(#clip0_2443_10703)">
<path d="M29.9912 0H0.00878906C0.003935 0 0 0.003935 0 0.00878906V29.9912C0 29.9961 0.003935 30 0.00878906 30H29.9912C29.9961 30 30 29.9961 30 29.9912V0.00878906C30 0.003935 29.9961 0 29.9912 0Z" fill="#0077B5"/>
<path d="M8.32031 10.2539C9.51765 10.2539 10.4883 9.28327 10.4883 8.08594C10.4883 6.8886 9.51765 5.91797 8.32031 5.91797C7.12298 5.91797 6.15234 6.8886 6.15234 8.08594C6.15234 9.28327 7.12298 10.2539 8.32031 10.2539Z" fill="white"/>
<path d="M14.2969 11.3672V22.9688V11.3672ZM8.32031 11.3672V22.9688V11.3672Z" fill="white"/>
<path d="M14.2969 11.3672V22.9688M8.32031 11.3672V22.9688" stroke="white" stroke-width="3.86719"/>
<path d="M16.1719 16.5234C16.1719 15.3516 16.9336 14.1797 18.2812 14.1797C19.6875 14.1797 20.2148 15.2344 20.2148 16.8164V22.9688H24.082V16.3477C24.082 12.7734 22.207 11.1328 19.6289 11.1328C17.6367 11.1328 16.6406 12.2461 16.1719 13.0078" fill="white"/>
</g>
<defs>
<clipPath id="clip0_2443_10703">
<rect width="30" height="30" rx="4" fill="white"/>
</clipPath>
</defs>
</svg>
