<svg width="32" height="27" viewBox="0 0 32 27" fill="none" xmlns="http://www.w3.org/2000/svg">
<path d="M9.90614 26.0954C21.793 26.0954 28.2945 16.2472 28.2945 7.70702C28.2945 7.42721 28.2945 7.14875 28.2757 6.8703C29.5404 5.95583 30.6322 4.82353 31.5 3.52638C30.3205 4.04904 29.0693 4.39181 27.788 4.54324C29.1372 3.73558 30.1469 2.46527 30.6293 0.968724C29.3607 1.72149 27.9728 2.25199 26.5255 2.53733C25.551 1.50124 24.2623 0.815172 22.8587 0.585298C21.4551 0.355424 20.0149 0.594555 18.7608 1.26569C17.5068 1.93682 16.509 3.00254 15.9216 4.29793C15.3343 5.59332 15.1903 7.04616 15.5119 8.43164C12.9424 8.30281 10.4288 7.63508 8.13414 6.47177C5.83948 5.30847 3.81511 3.67561 2.19245 1.6792C1.366 3.10192 1.11287 4.78614 1.48458 6.38895C1.85629 7.99176 2.82489 9.39264 4.19319 10.3064C3.16474 10.2759 2.15871 9.99845 1.26 9.49747V9.5793C1.26039 11.0714 1.77691 12.5175 2.72195 13.6722C3.66699 14.8269 4.98236 15.6192 6.44495 15.9146C5.49348 16.1741 4.49519 16.212 3.52677 16.0255C3.93974 17.3096 4.74375 18.4326 5.82634 19.2373C6.90894 20.0421 8.21599 20.4883 9.56468 20.5136C7.27618 22.3122 4.44914 23.2885 1.53846 23.2856C1.02425 23.2846 0.510555 23.2535 0 23.1923C2.95551 25.089 6.3944 26.095 9.90614 26.0903" fill="#1DA1F2"/>
</svg>
