<svg width="147" height="147" viewBox="0 0 147 147" fill="none" xmlns="http://www.w3.org/2000/svg">
<rect width="147" height="147" fill="white"/>
<path fill-rule="evenodd" clip-rule="evenodd" d="M114.349 84.207H81.9808V49.3157C84.1816 49.3412 86.3385 48.1143 87.352 45.9022C88.0587 44.3474 89.4722 43.0753 91.1683 42.6512C94.702 41.8032 96.5395 37.7041 94.8433 34.4532C93.9953 32.8984 93.9953 31.0609 94.702 29.5061C96.2568 26.2551 94.278 22.2974 90.603 21.5907C88.9068 21.308 87.4933 20.1772 86.6453 18.6224C84.9491 15.3714 80.7087 14.5234 77.8818 16.9262C76.6097 18.057 74.7722 18.4811 73.076 18.1984C69.5424 17.4916 66.1501 20.3186 66.2914 23.9936C66.4328 25.6897 65.5847 27.3859 64.3126 28.5166C64.216 28.598 64.1369 28.6902 64.0578 28.7824C64.012 28.8358 63.9661 28.8893 63.9168 28.9407H35.3366C29.8807 28.9407 25.4424 33.3789 25.4424 38.8349V123.643C25.4424 129.097 29.8807 133.537 35.3366 133.537H66.4328H72.0866H114.349C118.246 133.537 121.416 130.366 121.416 126.47V114.881V111.204V91.2743C121.416 87.3774 118.246 84.207 114.349 84.207ZM71.493 32.0602C72.0343 31.4976 72.929 31.4807 73.4916 32.022L76.3327 34.7585L84.2579 27.2106C84.8233 26.6721 85.718 26.6947 86.2566 27.2586C86.7951 27.824 86.7725 28.7188 86.2085 29.2573L77.3037 37.7381C76.7553 38.2596 75.8931 38.2582 75.3489 37.7324L71.5325 34.0574C70.9672 33.516 70.9516 32.6213 71.493 32.0602ZM28.2693 38.8349C28.2693 34.938 31.4397 31.7676 35.3366 31.7676H62.3987C61.9789 33.8567 62.7182 36.1324 64.5953 37.5628C66.0087 38.5522 66.8568 40.2484 66.8568 41.9445C66.8568 45.6195 70.3905 48.3051 73.6414 47.1743C75.3376 46.7503 77.1751 47.1743 78.5885 48.1637C78.7077 48.2548 78.835 48.3234 78.9621 48.3919C79.0264 48.4266 79.0907 48.4612 79.1539 48.4987V58.7195C77.9553 59.805 74.0231 63.0574 67.7303 65.3203C67.4943 63.3797 66.8865 61.5393 65.9522 60.0227C63.374 55.6721 58.6842 52.9695 53.7116 52.9695C48.7419 52.9695 44.0563 55.6678 41.4767 60.0128C40.5367 61.5436 39.9332 63.2779 39.6293 65.2977C33.3747 63.0348 29.4623 59.8022 28.2679 58.7195V38.8349H28.2693ZM53.853 70.6378C57.0403 70.6378 59.7881 72.8654 60.5966 75.9284C58.5513 77.5284 56.0834 78.4132 53.5689 78.4132C51.0091 78.4132 48.6938 77.6457 46.7729 76.1531C47.5051 72.9742 50.3066 70.6378 53.5703 70.6378H53.853ZM50.8847 64.9839C50.8847 63.3726 52.1003 62.157 53.7116 62.157C55.323 62.157 56.5385 63.3726 56.5385 64.9839C56.5385 66.5161 55.3088 67.8109 53.853 67.8109H53.6325H53.5703C52.1144 67.8109 50.8847 66.5161 50.8847 64.9839ZM57.9237 68.7197C58.8057 67.7133 59.3655 66.4059 59.3655 64.9839C59.3655 61.8135 56.882 59.3301 53.7116 59.3301C50.5412 59.3301 48.0578 61.8135 48.0578 64.9839C48.0578 66.4073 48.6175 67.7133 49.4995 68.7197C47.2747 69.753 45.474 71.6018 44.51 73.9114C43.194 72.1813 42.411 70.0046 42.2923 67.7614C42.2985 67.7458 42.3067 67.7315 42.3149 67.7173C42.3252 67.6994 42.3354 67.6815 42.3417 67.661C42.4336 67.3628 42.3983 67.0646 42.3036 66.7918C42.4746 64.7041 42.9863 62.9542 43.8923 61.4856L43.905 61.4644C46.0068 57.9152 49.6748 55.7964 53.713 55.7964C57.7513 55.7964 61.4192 57.9152 63.5338 61.4842C64.4907 63.0418 65.0193 65.0376 65.0193 67.1041V67.1042C65.0193 67.5056 65.0193 68.0059 64.95 68.2123C64.9218 68.2957 64.902 68.3819 64.8907 68.4681C64.6363 70.3325 63.8942 72.1247 62.7973 73.6456C61.8093 71.4604 60.0623 69.7134 57.9237 68.7197ZM72.0866 130.71H66.4328H35.3366C31.4397 130.71 28.2693 127.54 28.2693 123.643V62.3846C30.5125 64.0864 34.2921 66.4822 39.4964 68.2391C39.7904 71.9269 41.4795 75.3828 44.1227 77.6047C46.6231 79.9482 49.9787 81.2387 53.5703 81.2387C56.8679 81.2387 60.092 80.0359 62.6998 77.8634C63.0193 77.7376 63.268 77.5114 63.4221 77.216C65.7105 75.0308 67.2172 72.1332 67.6752 68.9642C67.7329 68.7596 67.7566 68.5464 67.78 68.3348L67.7854 68.2858C73.0619 66.5246 76.8896 64.1005 79.1539 62.3832V123.641C79.1539 127.538 75.9835 130.71 72.0866 130.71ZM118.589 126.47C118.589 128.807 116.687 130.71 114.349 130.71H78.997C80.8345 128.912 81.9808 126.41 81.9808 123.643V121.948H114.349C115.946 121.948 117.405 121.395 118.589 120.498V126.47ZM118.589 111.204V114.881C118.589 117.218 116.687 119.121 114.349 119.121H81.9808V87.0353H114.349C116.687 87.0353 118.589 88.9379 118.589 91.2757V111.204ZM70.6732 89.0142H36.7501C35.9698 89.0142 35.3366 89.646 35.3366 90.4277C35.3366 91.2093 35.9698 91.8411 36.7501 91.8411H70.6732C71.4534 91.8411 72.0866 91.2093 72.0866 90.4277C72.0866 89.646 71.4534 89.0142 70.6732 89.0142ZM62.1924 100.32C62.9726 100.32 63.6058 99.6887 63.6058 98.907C63.6058 98.1254 62.9726 97.4936 62.1924 97.4936H45.2308C44.4506 97.4936 43.8174 98.1254 43.8174 98.907C43.8174 99.6887 44.4506 100.32 45.2308 100.32H62.1924ZM38.1635 110.921H69.2597C70.8145 110.921 72.0866 112.194 72.0866 113.748V119.402C72.0866 120.957 70.8145 122.229 69.2597 122.229H38.1635C36.6087 122.229 35.3366 120.957 35.3366 119.402V113.748C35.3366 112.194 36.6087 110.921 38.1635 110.921ZM106.424 94.374C106.977 93.8214 107.87 93.8214 108.422 94.374L113.228 99.1798C113.781 99.7325 113.781 100.626 113.228 101.178C112.676 101.731 111.782 101.731 111.23 101.178L107.423 97.372L103.617 101.178C103.352 101.444 102.993 101.593 102.617 101.593C102.241 101.593 101.884 101.444 101.618 101.178L97.8427 97.4031L94.319 101.147C93.7804 101.717 92.8885 101.742 92.3203 101.208C91.7521 100.672 91.7253 99.7777 92.2596 99.2095L96.7826 94.4037C97.0455 94.1253 97.4088 93.9656 97.7918 93.9599C98.1904 93.9599 98.5438 94.1041 98.8124 94.374L102.617 98.1805L106.424 94.374Z" fill="#2F327D"/>
</svg>
